<svg xmlns="http://www.w3.org/2000/svg" width="27" height="35" viewBox="0 0 27 35" fill="none">
    <mask id="mask0_69_118" style="mask-type:luminance" maskUnits="userSpaceOnUse" x="0" y="4" width="26" height="26">
        <path d="M25.9636 4.66406H0.706421V29.9212H25.9636V4.66406Z" fill="white"/>
    </mask>
    <g mask="url(#mask0_69_118)">
        <path d="M22.3636 14.291H20.3499C19.6771 13.303 18.7818 12.4771 17.7387 11.8881C16.5707 11.2285 15.2444 10.8799 13.9033 10.8799H13.335C12.9228 10.8799 12.5886 11.214 12.5886 11.6262V14.291H4.30638C2.4879 14.291 0.981014 15.6467 0.740721 17.4002C0.738024 17.4171 0.735711 17.434 0.73417 17.4514C0.716634 17.5958 0.706421 17.7422 0.706421 17.8911V20.7448C0.706421 21.1569 1.04056 21.4911 1.45273 21.4911H4.06397C4.39598 22.7737 5.56315 23.7235 6.94806 23.7235C8.33296 23.7235 9.50014 22.7737 9.83212 21.4911H16.8379C17.1701 22.7737 18.337 23.7235 19.7219 23.7235C21.1068 23.7235 22.2738 22.7737 22.606 21.4911H25.2172C25.6294 21.4911 25.9636 21.1569 25.9636 20.7448V17.8911C25.9636 15.906 24.3486 14.291 22.3636 14.291ZM14.0813 12.3752C15.7308 12.4224 17.2953 13.1259 18.4301 14.291H14.0813V12.3752ZM2.19905 18.2615H3.35176C3.76394 18.2615 4.09808 17.9274 4.09808 17.5152C4.09808 17.103 3.76394 16.7689 3.35176 16.7689H2.52413C2.89777 16.1775 3.55679 15.7838 4.30638 15.7838H12.5886V19.9985H9.83212C9.49992 18.7159 8.33296 17.7659 6.94806 17.7659C5.56315 17.7659 4.39618 18.7159 4.06397 19.9985H2.19905V18.2615ZM8.43414 20.7448C8.43414 21.5643 7.76758 22.2309 6.94806 22.2309C6.12852 22.2309 5.46198 21.5643 5.46198 20.7448C5.46198 19.9253 6.12852 19.2587 6.94806 19.2587C7.76758 19.2587 8.43414 19.9253 8.43414 20.7448ZM21.208 20.7448C21.208 21.5643 20.5414 22.2309 19.7219 22.2309C18.9024 22.2309 18.2358 21.5643 18.2358 20.7448C18.2358 19.9253 18.9024 19.2587 19.7219 19.2587C20.5414 19.2587 21.208 19.9253 21.208 20.7448ZM22.606 19.9985C22.274 18.7159 21.1068 17.7659 19.7219 17.7659C18.337 17.7659 17.1698 18.7159 16.8379 19.9985H14.0813V15.7838H22.3636C23.0999 15.7838 23.7491 16.1638 24.126 16.7377H22.971C22.5588 16.7377 22.2247 17.0718 22.2247 17.484C22.2247 17.8962 22.5588 18.2305 22.971 18.2305H24.4709V19.9985H22.606Z" fill="#050B20"/>
    </g>
</svg>