<svg xmlns="http://www.w3.org/2000/svg" width="26" height="35" viewBox="0 0 26 35" fill="none">
    <path d="M20.3075 14.8551H19.3569C19.2499 14.8558 19.1439 14.8353 19.045 14.7948C18.9459 14.7544 18.8559 14.6948 18.78 14.6195L16.6187 12.4583C16.0858 11.9253 15.4521 11.5036 14.7547 11.2176C14.0572 10.9317 13.31 10.7872 12.5563 10.7926H5.6825C4.60506 10.7926 3.57174 11.2206 2.80988 11.9825C2.04801 12.7443 1.62 13.7777 1.62 14.8551V18.9176C1.62 19.5641 1.87681 20.1841 2.33392 20.6412C2.79104 21.0983 3.41103 21.3551 4.0575 21.3551C4.0575 22.1093 4.35711 22.8327 4.89041 23.366C5.42372 23.8993 6.14704 24.1989 6.90125 24.1989C7.65544 24.1989 8.37877 23.8993 8.91208 23.366C9.44538 22.8327 9.745 22.1093 9.745 21.3551H15.5138C15.6036 22.0349 15.9374 22.6589 16.4531 23.1109C16.9688 23.5629 17.6311 23.8122 18.3169 23.8122C19.0026 23.8122 19.665 23.5629 20.1806 23.1109C20.6963 22.6589 21.0301 22.0349 21.12 21.3551H21.9325C22.579 21.3551 23.1989 21.0983 23.6561 20.6412C24.1132 20.1841 24.37 19.5641 24.37 18.9176C24.37 17.8402 23.942 16.8068 23.1801 16.045C22.4182 15.2832 21.385 14.8551 20.3075 14.8551ZM12.5969 12.4176C13.1307 12.4167 13.6595 12.521 14.1531 12.7245C14.6466 12.928 15.0952 13.2269 15.4731 13.6039L16.7244 14.8551H6.69C6.53858 14.8562 6.38987 14.8149 6.26067 14.7359C6.13145 14.657 6.02688 14.5435 5.95875 14.4083L5.01625 12.5233C5.23173 12.4547 5.45636 12.419 5.6825 12.4176H12.5969ZM3.245 18.9176V14.8551C3.24544 14.3617 3.3956 13.8801 3.67562 13.4739L4.48812 15.0989C4.68743 15.5134 4.99996 15.863 5.38958 16.1074C5.77922 16.3519 6.23005 16.4811 6.69 16.4801H11.37V19.7301H9.4606C9.23241 19.2441 8.87048 18.8331 8.41724 18.5453C7.96399 18.2573 7.43818 18.1045 6.90125 18.1045C6.36431 18.1045 5.83846 18.2573 5.38522 18.5453C4.93199 18.8331 4.57009 19.2441 4.34187 19.7301H4.0575C3.84201 19.7301 3.63535 19.6445 3.48297 19.4922C3.3306 19.3398 3.245 19.1331 3.245 18.9176ZM6.90125 22.1676C6.6602 22.1676 6.42457 22.0962 6.22414 21.9623C6.02372 21.8283 5.86751 21.638 5.77527 21.4153C5.68302 21.1926 5.65889 20.9475 5.70591 20.7111C5.75294 20.4747 5.86901 20.2575 6.03946 20.0871C6.20991 19.9167 6.42707 19.8006 6.66348 19.7536C6.89989 19.7065 7.14494 19.7306 7.36764 19.8229C7.59034 19.9151 7.78069 20.0714 7.91459 20.2718C8.04849 20.4722 8.12 20.7078 8.12 20.9489C8.12 21.2721 7.9916 21.5821 7.76303 21.8106C7.53448 22.0392 7.22448 22.1676 6.90125 22.1676ZM18.2762 22.1676C18.0352 22.1676 17.7996 22.0962 17.5991 21.9623C17.3987 21.8283 17.2425 21.638 17.1503 21.4153C17.058 21.1926 17.0339 20.9475 17.0809 20.7111C17.1279 20.4747 17.244 20.2575 17.4145 20.0871C17.5849 19.9167 17.8021 19.8006 18.0385 19.7536C18.2749 19.7065 18.5199 19.7306 18.7427 19.8229C18.9654 19.9151 19.1557 20.0714 19.2896 20.2718C19.4235 20.4722 19.495 20.7078 19.495 20.9489C19.495 21.2721 19.3666 21.5821 19.138 21.8106C18.9095 22.0392 18.5994 22.1676 18.2762 22.1676ZM21.9325 19.7301H20.8356C20.6074 19.2441 20.2455 18.8331 19.7922 18.5453C19.339 18.2573 18.8132 18.1045 18.2762 18.1045C17.7393 18.1045 17.2135 18.2573 16.7603 18.5453C16.307 18.8331 15.9451 19.2441 15.7169 19.7301H12.995V16.4801H20.3075C20.6482 16.4819 20.9848 16.5552 21.2955 16.6951C21.6062 16.8351 21.8841 17.0386 22.1112 17.2926H21.9325C21.717 17.2926 21.5104 17.3782 21.358 17.5306C21.2056 17.683 21.12 17.8897 21.12 18.1051C21.12 18.3206 21.2056 18.5273 21.358 18.6797C21.5104 18.832 21.717 18.9176 21.9325 18.9176H22.745C22.745 19.1331 22.6594 19.3398 22.507 19.4922C22.3546 19.6445 22.148 19.7301 21.9325 19.7301Z" fill="#050B20"/>
</svg>