<svg xmlns="http://www.w3.org/2000/svg" width="27" height="35" viewBox="0 0 27 35" fill="none">
    <path d="M24.0187 16.3338L20.7793 15.0386L18.8967 10.6454C18.5116 9.7476 17.6325 9.16748 16.6559 9.16748H9.20356C8.12132 9.16748 7.15689 9.89467 6.85951 10.9355L5.73988 14.855H3.91501C3.01882 14.855 2.29001 15.5838 2.29001 16.48V21.355C2.29001 22.2511 3.01882 22.98 3.91501 22.98H5.65539C6.01857 24.3775 7.28039 25.4175 8.79001 25.4175C10.2996 25.4175 11.5615 24.3775 11.9246 22.98H15.4054C15.7686 24.3775 17.0304 25.4175 18.54 25.4175C20.0496 25.4175 21.3115 24.3775 21.6746 22.98H23.415C24.3112 22.98 25.04 22.2511 25.04 21.355V17.8425C25.04 17.1739 24.6395 16.5815 24.0187 16.3338ZM8.79001 23.7925C7.89382 23.7925 7.16501 23.0636 7.16501 22.1675C7.16501 21.2713 7.89382 20.5425 8.79001 20.5425C9.68617 20.5425 10.415 21.2713 10.415 22.1675C10.415 23.0636 9.68617 23.7925 8.79001 23.7925ZM18.54 23.7925C17.6439 23.7925 16.915 23.0636 16.915 22.1675C16.915 21.2713 17.6439 20.5425 18.54 20.5425C19.4362 20.5425 20.165 21.2713 20.165 22.1675C20.165 23.0636 19.4362 23.7925 18.54 23.7925ZM23.415 21.355H21.6746C21.3115 19.9575 20.0496 18.9175 18.54 18.9175C17.0304 18.9175 15.7686 19.9575 15.4054 21.355H11.9246C11.5615 19.9575 10.2996 18.9175 8.79001 18.9175C7.28039 18.9175 6.01857 19.9575 5.65539 21.355H3.91501V16.48H6.35251C6.71489 16.48 7.0342 16.2395 7.13332 15.8909L8.42111 11.3824C8.52106 11.0346 8.84201 10.7925 9.20356 10.7925H16.6559C16.9809 10.7925 17.2741 10.9859 17.4025 11.2849L19.4175 15.9876C19.502 16.1859 19.6621 16.3419 19.862 16.4223L23.415 17.8425V21.355Z" fill="#050B20"/>
    <path d="M12.4018 18.7811C12.0289 18.5325 11.9281 18.0279 12.1767 17.6541L12.9592 16.4801H12.0402C11.7405 16.4801 11.465 16.3151 11.3236 16.0511C11.1822 15.787 11.1977 15.4661 11.3642 15.2175L12.9892 12.78C13.2379 12.4063 13.7425 12.3055 14.1162 12.5549C14.4891 12.8035 14.5899 13.3081 14.3412 13.6819L13.5588 14.8551H14.4777C14.7776 14.8551 15.053 15.02 15.1944 15.2841C15.3357 15.5481 15.3203 15.8691 15.1537 16.1178L13.5287 18.5553C13.2793 18.9298 12.774 19.0298 12.4018 18.7811Z" fill="#050B20"/>
</svg>