<svg xmlns="http://www.w3.org/2000/svg" width="26" height="35" viewBox="0 0 26 35" fill="none">
    <mask id="mask0_69_95" style="mask-type:luminance" maskUnits="userSpaceOnUse" x="0" y="4" width="26" height="26">
        <path d="M25.6235 4.72412H0.366394V29.9813H25.6235V4.72412Z" fill="white"/>
    </mask>
    <g mask="url(#mask0_69_95)">
        <path d="M23.2159 16.3031L18.856 15.5761C18.601 15.162 18.0942 14.413 17.3574 13.6625C15.8867 12.1647 14.1934 11.373 12.4606 11.373H5.36025C4.20691 11.373 3.13758 11.9966 2.56954 13.0004L0.612947 16.4583C0.60979 16.4639 0.607422 16.4697 0.604413 16.4753C0.453068 16.7461 0.366394 17.0579 0.366394 17.3896V21.0333C0.366394 21.4419 0.697697 21.7731 1.10635 21.7731H3.47623C3.82406 22.6833 4.71062 23.3321 5.7472 23.3321C6.78378 23.3321 7.67031 22.6833 8.01819 21.7731H17.2085C17.5563 22.6833 18.4428 23.3321 19.4794 23.3321C20.5159 23.3321 21.4025 22.6833 21.7503 21.7731H24.8836C25.2922 21.7731 25.6235 21.4419 25.6235 21.0333V19.0743C25.6235 17.6862 24.5893 16.4969 23.2159 16.3031ZM17.0046 15.5089H11.6742V12.853H12.4606C14.5579 12.853 16.1419 14.4035 17.0046 15.5089ZM6.73544 12.853H10.1943V15.5089H6.73544V12.853ZM3.85756 13.7293C4.14613 13.2193 4.67505 12.8919 5.25552 12.8565V15.5089H2.85052L3.85756 13.7293ZM5.7472 21.8522C5.22415 21.8522 4.79863 21.4338 4.79863 20.9194C4.79863 20.4052 5.22415 19.9867 5.7472 19.9867C6.27025 19.9867 6.69577 20.4052 6.69577 20.9194C6.69577 21.4338 6.27025 21.8522 5.7472 21.8522ZM19.4794 21.8522C18.9562 21.8522 18.5307 21.4338 18.5307 20.9194C18.5307 20.4052 18.9563 19.9867 19.4794 19.9867C20.0024 19.9867 20.4279 20.4052 20.4279 20.9194C20.4279 21.4338 20.0024 21.8522 19.4794 21.8522ZM21.8243 20.2932C21.5461 19.2656 20.6004 18.5068 19.4794 18.5068C18.3582 18.5068 17.4127 19.2656 17.1342 20.2932H8.09218C7.81391 19.2656 6.86828 18.5068 5.7472 18.5068C4.62612 18.5068 3.6805 19.2656 3.40213 20.2932H1.84631V17.3896C1.84631 17.1686 2.02606 16.9888 2.24706 16.9888H18.3309L22.9823 17.7645C22.9894 17.7657 22.9966 17.7668 23.0038 17.7678C23.1296 17.785 23.2494 17.8202 23.3609 17.8701C23.0513 17.9586 22.8245 18.2431 22.8245 18.5811C22.8245 18.9897 23.1558 19.321 23.5644 19.321H24.1436V20.2933L21.8243 20.2932Z" fill="#050B20"/>
    </g>
</svg>