<svg xmlns="http://www.w3.org/2000/svg" width="26" height="35" viewBox="0 0 26 35" fill="none">
    <mask id="mask0_69_84" style="mask-type:luminance" maskUnits="userSpaceOnUse" x="-1" y="4" width="27" height="27">
        <path d="M25.995 4.35254H-0.00500488V30.3525H25.995V4.35254Z" fill="white"/>
    </mask>
    <g mask="url(#mask0_69_84)">
        <path d="M25.1472 20.7441H24.2993V16.505C24.2993 15.1024 23.1583 13.9615 21.7558 13.9615H18.9757L17.8597 10.6136C17.5129 9.57341 16.5432 8.87451 15.4467 8.87451C15.3147 8.87451 6.14882 8.87451 5.92975 8.87451C4.82444 8.87451 3.88209 9.58336 3.53211 10.5701H2.53848C1.136 10.5701 -0.00500488 11.7111 -0.00500488 13.1136V16.505C-0.00500488 17.9075 1.136 19.0484 2.53848 19.0484H3.38632V20.7441H2.53848C2.07027 20.7441 1.69063 21.1237 1.69063 21.5919C1.69063 22.0602 2.07022 22.4398 2.53848 22.4398C3.33249 22.4398 4.2853 22.4398 5.08196 22.4398C5.08196 24.3097 6.60331 25.8311 8.47329 25.8311C10.3432 25.8311 11.8646 24.3097 11.8646 22.4398H15.8211C15.8211 24.3097 17.3425 25.8311 19.2124 25.8311C21.0824 25.8311 22.6038 24.3097 22.6038 22.4398C23.4007 22.4398 24.3538 22.4398 25.1472 22.4398C25.6155 22.4398 25.9951 22.0602 25.9951 21.5919C25.9951 21.1237 25.6154 20.7441 25.1472 20.7441ZM3.38632 17.3527H2.53848C2.07098 17.3527 1.69063 16.9724 1.69063 16.5049V13.1136C1.69063 12.646 2.07098 12.2658 2.53848 12.2658H3.38632C3.38632 12.8059 3.38632 16.8289 3.38632 17.3527ZM11.8645 10.5701H13.2776H15.4467C15.8122 10.5701 16.1355 10.8031 16.251 11.1498L17.1882 13.9614H11.8645V10.5701ZM5.08196 11.4179C5.08196 10.9504 5.46231 10.5701 5.9298 10.5701H10.1689V13.9614H5.08196V11.4179ZM8.47329 24.1354C7.5383 24.1354 6.77765 23.3747 6.77765 22.4397C6.77765 21.5047 7.5383 20.7441 8.47329 20.7441C9.4083 20.7441 10.1689 21.5047 10.1689 22.4397C10.1689 23.3747 9.4083 24.1354 8.47329 24.1354ZM19.2124 24.1354C18.2774 24.1354 17.5168 23.3747 17.5168 22.4397C17.5168 21.5047 18.2774 20.7441 19.2124 20.7441C20.1474 20.7441 20.908 21.5047 20.908 22.4397C20.908 23.3747 20.1474 24.1354 19.2124 24.1354ZM22.6037 20.7441H22.1475C21.5601 19.7314 20.4649 19.0484 19.2124 19.0484C17.9599 19.0484 16.8647 19.7314 16.2773 20.7441H11.4083C10.821 19.7314 9.72572 19.0484 8.47329 19.0484C7.22081 19.0484 6.12556 19.7314 5.53823 20.7441H5.08201V18.2006V15.6571C6.46458 15.6571 20.8481 15.6571 21.7559 15.6571C22.2234 15.6571 22.6038 16.0374 22.6038 16.505L22.6037 20.7441Z" fill="#050B20"/>
        <path d="M14.4082 17.3525H12.7126C12.2444 17.3525 11.8648 17.7321 11.8648 18.2004C11.8648 18.6686 12.2444 19.0482 12.7126 19.0482H14.4082C14.8764 19.0482 15.2561 18.6687 15.2561 18.2004C15.2561 17.7321 14.8765 17.3525 14.4082 17.3525Z" fill="#050B20"/>
    </g>
</svg>