<svg xmlns="http://www.w3.org/2000/svg" width="29" height="30" viewBox="0 0 29 30" fill="none">
    <path d="M14.5 6.74023C9.79397 6.74023 5.9683 10.5659 5.96183 15.2719C5.96183 16.8838 6.41496 18.4567 7.26942 19.8096L7.47009 20.1333L6.60915 23.2793L9.83929 22.4313L10.15 22.619C11.4576 23.3958 12.9594 23.8101 14.4935 23.8101H14.5C19.1996 23.8101 23.1288 19.9844 23.1288 15.2784C23.1288 12.9998 22.1449 10.8572 20.533 9.24536C18.9147 7.62706 16.7786 6.74023 14.5 6.74023ZM19.5167 18.9358C19.3031 19.5378 18.2804 20.0815 17.7884 20.1527C16.9728 20.2757 16.3384 20.211 14.7136 19.5119C12.1438 18.3985 10.4607 15.8092 10.3313 15.6409C10.2018 15.4726 9.28259 14.2492 9.28259 12.9869C9.28259 11.7246 9.94286 11.1032 10.1824 10.8442C10.4154 10.5853 10.6937 10.5206 10.8685 10.5206C11.0368 10.5206 11.2116 10.5206 11.3605 10.5271C11.5158 10.5335 11.7295 10.4688 11.9366 10.9672C12.1502 11.4786 12.6616 12.7409 12.7263 12.8704C12.7911 12.9998 12.8364 13.1487 12.7458 13.317C12.2538 14.3009 11.7295 14.2621 11.9949 14.7152C12.9853 16.4177 13.9757 17.0067 15.4839 17.7641C15.7429 17.8936 15.8917 17.8742 16.0406 17.6994C16.1895 17.5311 16.6815 16.9485 16.8498 16.696C17.0181 16.4371 17.1929 16.4824 17.4259 16.5666C17.6589 16.6507 18.9212 17.2721 19.1801 17.4016C19.4391 17.5311 19.6074 17.5958 19.6721 17.6994C19.7304 17.8224 19.7304 18.3402 19.5167 18.9358ZM25.8929 0.862549H3.10714C1.39174 0.862549 0 2.25429 0 3.96969V26.7554C0 28.4708 1.39174 29.8625 3.10714 29.8625H25.8929C27.6083 29.8625 29 28.4708 29 26.7554V3.96969C29 2.25429 27.6083 0.862549 25.8929 0.862549ZM14.4935 25.5384C12.7717 25.5384 11.0821 25.1047 9.58683 24.2891L4.14286 25.7197L5.59933 20.3987C4.69955 18.8451 4.22701 17.0779 4.22701 15.2655C4.23348 9.60786 8.83594 5.00541 14.4935 5.00541C17.2382 5.00541 19.8145 6.07349 21.7565 8.01545C23.692 9.95741 24.8571 12.5338 24.8571 15.2784C24.8571 20.936 20.1511 25.5384 14.4935 25.5384Z" fill="black"/>
</svg>